<svg width="5" height="5" viewBox="0 0 5 5" fill="none" xmlns="http://www.w3.org/2000/svg">
<path d="M0.624468 3.95833H4.37447C4.41244 3.95821 4.44965 3.94773 4.48211 3.92804C4.51457 3.90834 4.54104 3.88017 4.55868 3.84654C4.57631 3.81292 4.58444 3.77513 4.5822 3.73722C4.57995 3.69932 4.56741 3.66275 4.54593 3.63145L2.67093 0.923116C2.59322 0.810825 2.40614 0.810825 2.32822 0.923116L0.453218 3.63145C0.431515 3.66269 0.418788 3.69928 0.41642 3.73724C0.414051 3.7752 0.422132 3.81309 0.439784 3.84678C0.457436 3.88048 0.483984 3.90869 0.516544 3.92835C0.549104 3.94802 0.586431 3.95838 0.624468 3.95833Z" fill="black"/>
</svg>
