<svg width="5" height="5" viewBox="0 0 5 5" fill="none" xmlns="http://www.w3.org/2000/svg">
<path d="M4.37553 1.04167L0.625532 1.04167C0.587565 1.04179 0.550349 1.05227 0.517891 1.07196C0.485432 1.09166 0.45896 1.11983 0.441324 1.15346C0.423688 1.18708 0.415555 1.22487 0.417802 1.26278C0.420048 1.30068 0.432589 1.33725 0.454073 1.36855L2.32907 4.07688C2.40678 4.18918 2.59386 4.18918 2.67178 4.07688L4.54678 1.36855C4.56848 1.33731 4.58121 1.30072 4.58358 1.26276C4.58595 1.2248 4.57787 1.18691 4.56022 1.15321C4.54256 1.11952 4.51602 1.09131 4.48346 1.07164C4.4509 1.05198 4.41357 1.04161 4.37553 1.04167Z" fill="black"/>
</svg>
