<svg width="172" height="174" viewBox="0 0 172 174" fill="none" xmlns="http://www.w3.org/2000/svg">
<path fill-rule="evenodd" clip-rule="evenodd" d="M63.2546 43.1703C75.1757 43.1703 84.8397 33.5063 84.8397 21.5851C84.8397 9.66399 75.1757 0 63.2546 0C51.3334 0 41.6694 9.66399 41.6694 21.5851C41.6694 33.5063 51.3334 43.1703 63.2546 43.1703ZM71.0406 46.9357C80.3237 43.9622 87.2914 35.8142 88.5496 25.8856L126.509 63.845L107.229 83.1245L71.0406 46.9357ZM37.9594 25.8856C39.2177 35.8142 46.1853 43.9622 55.4685 46.9357L19.2796 83.1246L0 63.845L37.9594 25.8856Z" fill="#17517E"/>
<path fill-rule="evenodd" clip-rule="evenodd" d="M108.623 130.298C96.7022 130.298 87.0382 139.962 87.0382 151.883C87.0382 163.804 96.7022 173.468 108.623 173.468C120.545 173.468 130.208 163.804 130.208 151.883C130.208 139.962 120.545 130.298 108.623 130.298ZM100.837 126.533C91.5543 129.506 84.5866 137.654 83.3284 147.583L45.3689 109.623L64.6485 90.3436L100.837 126.533ZM133.919 147.583C132.66 137.654 125.693 129.506 116.409 126.533L152.598 90.3436L171.878 109.623L133.919 147.583Z" fill="#17517E"/>
<path fill-rule="evenodd" clip-rule="evenodd" d="M128.708 63.2546C128.708 75.1757 138.372 84.8397 150.293 84.8397C162.214 84.8397 171.878 75.1757 171.878 63.2546C171.878 51.3334 162.214 41.6694 150.293 41.6694C138.372 41.6694 128.708 51.3334 128.708 63.2546ZM124.942 71.0406C127.916 80.3237 136.064 87.2914 145.992 88.5497L108.033 126.509L88.7533 107.23L124.942 71.0406ZM145.992 37.9594C136.064 39.2177 127.916 46.1853 124.942 55.4684L88.7534 19.2796L108.033 -1.80495e-05L145.992 37.9594Z" fill="#B11D18"/>
<path fill-rule="evenodd" clip-rule="evenodd" d="M43.1703 110.214C43.1703 98.2925 33.5063 88.6285 21.5851 88.6285C9.66398 88.6285 -1.19728e-05 98.2925 -1.24938e-05 110.214C-1.30149e-05 122.135 9.66398 131.799 21.5851 131.799C33.5063 131.799 43.1703 122.135 43.1703 110.214ZM46.9357 102.428C43.9622 93.1444 35.8142 86.1768 25.8856 84.9185L63.8451 46.959L83.1246 66.2386L46.9357 102.428ZM25.8858 135.509C35.8144 134.25 43.9624 127.283 46.9358 118L83.1248 154.189L63.8453 173.468L25.8858 135.509Z" fill="#B11D18"/>
</svg>
