<svg width="15" height="28" viewBox="0 0 15 28" fill="none" xmlns="http://www.w3.org/2000/svg">
<path d="M1.87341 12.075H13.1234C13.2373 12.0746 13.349 12.0432 13.4463 11.9841C13.5437 11.925 13.6231 11.8405 13.676 11.7396C13.7289 11.6388 13.7533 11.5254 13.7466 11.4117C13.7399 11.298 13.7022 11.1883 13.6378 11.0944L8.01278 2.96936C7.77966 2.63249 7.21841 2.63249 6.98466 2.96936L1.35966 11.0944C1.29455 11.1881 1.25636 11.2978 1.24926 11.4117C1.24215 11.5256 1.2664 11.6393 1.31935 11.7404C1.37231 11.8414 1.45195 11.9261 1.54963 11.9851C1.64731 12.0441 1.75929 12.0752 1.87341 12.075Z" fill="black"/>
<path d="M13.1266 15.325L1.87659 15.325C1.76269 15.3254 1.65105 15.3568 1.55367 15.4159C1.4563 15.475 1.37688 15.5595 1.32397 15.6604C1.27106 15.7612 1.24667 15.8746 1.25341 15.9883C1.26014 16.102 1.29777 16.2117 1.36222 16.3056L6.98722 24.4306C7.22034 24.7675 7.78159 24.7675 8.01534 24.4306L13.6403 16.3056C13.7055 16.2119 13.7436 16.1022 13.7507 15.9883C13.7578 15.8744 13.7336 15.7607 13.6806 15.6596C13.6277 15.5585 13.548 15.4739 13.4504 15.4149C13.3527 15.3559 13.2407 15.3248 13.1266 15.325Z" fill="black"/>
</svg>
